<svg xmlns="http://www.w3.org/2000/svg" width="1484.791" height="990.86" viewBox="0 0 1484.791 990.86">
  <g id="estrellas_grandes" data-name="estrellas grandes" transform="translate(1573.316 858.682) rotate(169)">
    <circle id="Elipse_42" data-name="Elipse 42" cx="4" cy="4" r="4" transform="translate(205 345)" fill="#cbcbcb"/>
    <circle id="Elipse_55" data-name="Elipse 55" cx="4" cy="4" r="4" transform="translate(500 829)" fill="#cbcbcb"/>
    <circle id="Elipse_54" data-name="Elipse 54" cx="4" cy="4" r="4" transform="translate(63 879)" fill="#cbcbcb"/>
    <circle id="Elipse_53" data-name="Elipse 53" cx="4" cy="4" r="4" transform="translate(312 20)" fill="#cbcbcb"/>
    <circle id="Elipse_52" data-name="Elipse 52" cx="4" cy="4" r="4" transform="translate(55 181)" fill="#cbcbcb"/>
    <circle id="Elipse_51" data-name="Elipse 51" cx="4" cy="4" r="4" transform="translate(1086 78)" fill="#cbcbcb"/>
    <circle id="Elipse_50" data-name="Elipse 50" cx="4" cy="4" r="4" transform="translate(1147 489)" fill="#cbcbcb"/>
    <circle id="Elipse_49" data-name="Elipse 49" cx="4" cy="4" r="4" transform="translate(937 243)" fill="#cbcbcb"/>
    <circle id="Elipse_57" data-name="Elipse 57" cx="4" cy="4" r="4" transform="translate(1483 565)" fill="#cbcbcb"/>
    <circle id="Elipse_48" data-name="Elipse 48" cx="4" cy="4" r="4" transform="translate(762 875)" fill="#cbcbcb"/>
    <circle id="Elipse_47" data-name="Elipse 47" cx="4" cy="4" r="4" transform="translate(832 591)" fill="#cbcbcb"/>
    <circle id="Elipse_46" data-name="Elipse 46" cx="4" cy="4" r="4" transform="translate(791 288)" fill="#cbcbcb"/>
    <circle id="Elipse_56" data-name="Elipse 56" cx="4" cy="4" r="4" transform="translate(1552 212)" fill="#cbcbcb"/>
    <circle id="Elipse_59" data-name="Elipse 59" cx="4" cy="4" r="4" transform="translate(1269 303)" fill="#cbcbcb"/>
    <circle id="Elipse_45" data-name="Elipse 45" cx="4" cy="4" r="4" transform="translate(610 127)" fill="#cbcbcb"/>
    <circle id="Elipse_44" data-name="Elipse 44" cx="4" cy="4" r="4" transform="translate(447 424)" fill="#cbcbcb"/>
    <circle id="Elipse_43" data-name="Elipse 43" cx="4" cy="4" r="4" transform="translate(197 511)" fill="#cbcbcb"/>
  </g>
</svg>
