<svg xmlns="http://www.w3.org/2000/svg" width="1646" height="864" viewBox="0 0 1646 864">
  <g id="estrellas_pequeñas" data-name="estrellas pequeñas" transform="translate(-110 -55)">
    <circle id="Elipse_17" data-name="Elipse 17" cx="2.5" cy="2.5" r="2.5" transform="translate(217 182)" fill="#7d7d7d"/>
    <circle id="Elipse_28" data-name="Elipse 28" cx="2.5" cy="2.5" r="2.5" transform="translate(841 432)" fill="#7d7d7d"/>
    <circle id="Elipse_27" data-name="Elipse 27" cx="2.5" cy="2.5" r="2.5" transform="translate(836 86)" fill="#7d7d7d"/>
    <circle id="Elipse_26" data-name="Elipse 26" cx="2.5" cy="2.5" r="2.5" transform="translate(110 55)" fill="#7d7d7d"/>
    <circle id="Elipse_25" data-name="Elipse 25" cx="2.5" cy="2.5" r="2.5" transform="translate(495 683)" fill="#7d7d7d"/>
    <circle id="Elipse_24" data-name="Elipse 24" cx="2.5" cy="2.5" r="2.5" transform="translate(115 678)" fill="#7d7d7d"/>
    <circle id="Elipse_23" data-name="Elipse 23" cx="2.5" cy="2.5" r="2.5" transform="translate(536 506)" fill="#7d7d7d"/>
    <circle id="Elipse_22" data-name="Elipse 22" cx="2.5" cy="2.5" r="2.5" transform="translate(387 207)" fill="#7d7d7d"/>
    <circle id="Elipse_39" data-name="Elipse 39" cx="2.5" cy="2.5" r="2.5" transform="translate(253 568)" fill="#7d7d7d"/>
    <circle id="Elipse_35" data-name="Elipse 35" cx="2.5" cy="2.5" r="2.5" transform="translate(1751 583)" fill="#7d7d7d"/>
    <circle id="Elipse_33" data-name="Elipse 33" cx="2.5" cy="2.5" r="2.5" transform="translate(1293 501)" fill="#7d7d7d"/>
    <circle id="Elipse_30" data-name="Elipse 30" cx="2.5" cy="2.5" r="2.5" transform="translate(1089 308)" fill="#7d7d7d"/>
    <circle id="Elipse_21" data-name="Elipse 21" cx="2.5" cy="2.5" r="2.5" transform="translate(442 91)" fill="#7d7d7d"/>
    <circle id="Elipse_34" data-name="Elipse 34" cx="2.5" cy="2.5" r="2.5" transform="translate(1623 94)" fill="#7d7d7d"/>
    <circle id="Elipse_20" data-name="Elipse 20" cx="2.5" cy="2.5" r="2.5" transform="translate(541 202)" fill="#7d7d7d"/>
    <circle id="Elipse_32" data-name="Elipse 32" cx="2.5" cy="2.5" r="2.5" transform="translate(1547 347)" fill="#7d7d7d"/>
    <circle id="Elipse_31" data-name="Elipse 31" cx="2.5" cy="2.5" r="2.5" transform="translate(1188 664)" fill="#7d7d7d"/>
    <circle id="Elipse_19" data-name="Elipse 19" cx="2.5" cy="2.5" r="2.5" transform="translate(278 372)" fill="#7d7d7d"/>
    <circle id="Elipse_41" data-name="Elipse 41" cx="2.5" cy="2.5" r="2.5" transform="translate(125 445)" fill="#7d7d7d"/>
    <circle id="Elipse_40" data-name="Elipse 40" cx="2.5" cy="2.5" r="2.5" transform="translate(382 490)" fill="#7d7d7d"/>
    <circle id="Elipse_38" data-name="Elipse 38" cx="2.5" cy="2.5" r="2.5" transform="translate(534 319)" fill="#7d7d7d"/>
    <circle id="Elipse_37" data-name="Elipse 37" cx="2.5" cy="2.5" r="2.5" transform="translate(917 599)" fill="#7d7d7d"/>
    <circle id="Elipse_36" data-name="Elipse 36" cx="2.5" cy="2.5" r="2.5" transform="translate(258 914)" fill="#7d7d7d"/>
    <circle id="Elipse_29" data-name="Elipse 29" cx="2.5" cy="2.5" r="2.5" transform="translate(1349 135)" fill="#7d7d7d"/>
    <circle id="Elipse_18" data-name="Elipse 18" cx="2.5" cy="2.5" r="2.5" transform="translate(120 283)" fill="#7d7d7d"/>
  </g>
</svg>
